<?xml version="1.0" standalone="no"?>
<!DOCTYPE svg PUBLIC "-//W3C//DTD SVG 20010904//EN"
 "http://www.w3.org/TR/2001/REC-SVG-20010904/DTD/svg10.dtd">
<svg version="1.0" xmlns="http://www.w3.org/2000/svg"
 width="512.000000pt" height="512.000000pt" viewBox="0 0 512.000000 512.000000"
 preserveAspectRatio="xMidYMid meet">

<g transform="translate(0.000000,512.000000) scale(0.100000,-0.100000)"
fill="#000000" stroke="none">
<path d="M430 5110 c-195 -34 -338 -161 -406 -360 -18 -53 -19 -123 -19 -2190
0 -2067 1 -2137 19 -2190 33 -96 67 -153 130 -216 63 -63 120 -97 216 -130 53
-18 123 -19 2190 -19 2067 0 2137 1 2190 19 96 33 153 67 216 130 63 63 97
120 130 216 18 53 19 123 19 2190 0 2067 -1 2137 -19 2190 -33 96 -67 153
-130 216 -63 62 -107 90 -206 128 l-55 21 -2115 1 c-1163 1 -2135 -2 -2160 -6z
m3540 -1034 c163 -21 298 -59 425 -120 342 -166 515 -433 515 -794 -1 -343
-179 -665 -478 -863 -154 -101 -307 -142 -532 -142 -275 -1 -410 57 -410 175
0 55 21 66 206 104 206 42 247 55 321 103 114 73 190 189 234 356 17 65 21
111 22 240 1 142 -1 167 -21 219 -48 128 -123 211 -246 271 -138 67 -319 94
-522 77 -233 -20 -343 -53 -606 -179 -150 -72 -188 -86 -240 -90 -114 -9 -127
38 -44 161 l43 64 -41 -21 c-55 -29 -155 -32 -569 -17 -181 6 -331 10 -333 8
-2 -3 -13 -69 -23 -149 -11 -79 -51 -326 -90 -549 -123 -708 -171 -1080 -194
-1509 -13 -218 -14 -231 -39 -268 -53 -80 -185 -126 -370 -127 -109 -1 -118 1
-141 22 -34 32 -47 93 -54 251 -9 207 17 451 88 841 89 487 257 1092 379 1370
23 52 44 100 47 107 5 12 -15 11 -162 -9 -117 -15 -256 -49 -507 -123 -304
-90 -387 -100 -410 -49 -18 38 32 125 131 227 175 182 443 323 730 384 62 14
158 17 536 20 253 2 609 0 791 -4 306 -7 334 -9 353 -27 31 -28 27 -81 -15
-172 -19 -44 -45 -99 -56 -124 l-20 -45 50 47 c161 151 472 289 747 333 110
18 367 18 505 1z m-513 -603 c13 -31 14 -69 10 -213 -5 -196 -30 -361 -117
-770 -81 -386 -88 -439 -110 -875 -23 -448 -26 -462 -100 -511 -84 -56 -243
-91 -376 -82 -124 8 -139 50 -138 378 0 243 11 342 65 608 80 399 226 856 351
1107 122 242 262 390 376 394 18 1 27 -8 39 -36z"/>
</g>
</svg>
